<svg width="165" height="24" viewBox="0 0 165 24" fill="none" xmlns="http://www.w3.org/2000/svg">
<path d="M0.56 23.3516H10.096C17.424 23.3516 21.776 19.2236 21.776 12.2476C21.776 5.17556 17.424 0.951561 10.096 0.951561H0.56V23.3516ZM10.096 18.5516H6.48V5.75156H10.096C13.712 5.75156 15.696 8.05556 15.696 12.2476C15.696 16.3116 13.712 18.5516 10.096 18.5516ZM23.7025 12.1516C23.7025 18.9996 27.7345 23.6716 34.9025 23.6716C40.5345 23.6716 44.5025 20.8876 45.4945 15.5116L39.5745 14.3916C39.1265 17.3356 37.4945 18.8716 34.9025 18.8716C31.6065 18.8716 29.7825 16.5036 29.7825 12.1516C29.7825 7.79956 31.6065 5.43156 34.9025 5.43156C37.3985 5.43156 38.9985 6.96756 39.5425 9.78356L45.5265 8.63156C44.3425 3.38356 40.4705 0.631561 34.9025 0.631561C28.2465 0.631561 23.7025 5.30356 23.7025 12.1516ZM52.976 16.2796C53.648 21.3676 56.816 23.6716 63.12 23.6716C69.296 23.6716 72.944 21.0156 72.944 16.5036C72.944 12.5676 70.704 10.5196 65.648 9.78356L62.992 9.39956C60.368 9.01556 59.6 8.37556 59.6 7.15956C59.6 5.94356 60.624 5.11156 62.896 5.11156C65.168 5.11156 66.192 6.00756 66.64 8.27956L72.4 7.54356C71.728 2.87156 68.784 0.631561 63.056 0.631561C57.36 0.631561 53.616 3.47956 53.616 7.83156C53.616 11.5756 55.888 13.7516 60.528 14.3916L63.312 14.7756C66.256 15.1916 66.96 15.8636 66.96 17.1436C66.96 18.4236 65.872 19.1916 63.28 19.1916C60.624 19.1916 59.12 18.0076 58.736 15.5436L52.976 16.2796ZM75.9688 23.3516H81.8888V14.2316H90.7848V23.3516H96.7048V0.951561H90.7848V9.43156H81.8888V0.951561H75.9688V23.3516ZM111.317 23.6716C118.197 23.6716 122.741 19.0636 122.741 12.1516C122.741 5.20756 118.197 0.631561 111.317 0.631561C104.437 0.631561 99.8925 5.20756 99.8925 12.1516C99.8925 19.0636 104.437 23.6716 111.317 23.6716ZM111.317 18.8716C107.861 18.8716 105.973 16.5036 105.973 12.1516C105.973 7.79956 107.861 5.43156 111.317 5.43156C114.773 5.43156 116.661 7.79956 116.661 12.1516C116.661 16.5036 114.773 18.8716 111.317 18.8716ZM125.939 23.3516H142.483V18.5516H131.859V14.3276H140.499V9.65556H131.859V5.75156H142.131V0.951561H125.939V23.3516ZM144.166 16.2796C144.838 21.3676 148.006 23.6716 154.31 23.6716C160.486 23.6716 164.134 21.0156 164.134 16.5036C164.134 12.5676 161.894 10.5196 156.838 9.78356L154.182 9.39956C151.558 9.01556 150.79 8.37556 150.79 7.15956C150.79 5.94356 151.814 5.11156 154.086 5.11156C156.358 5.11156 157.382 6.00756 157.83 8.27956L163.59 7.54356C162.918 2.87156 159.974 0.631561 154.246 0.631561C148.55 0.631561 144.806 3.47956 144.806 7.83156C144.806 11.5756 147.078 13.7516 151.718 14.3916L154.502 14.7756C157.446 15.1916 158.15 15.8636 158.15 17.1436C158.15 18.4236 157.062 19.1916 154.47 19.1916C151.814 19.1916 150.31 18.0076 149.926 15.5436L144.166 16.2796Z" fill="white"/>
</svg>
